<svg width="657.9px" height="122px" xmlns="http://www.w3.org/2000/svg" viewBox="-78.94687499999998 14 657.89375 122" style="background: rgba(0, 0, 0, 0)" preserveAspectRatio="xMidYMid"><defs><linearGradient id="editing-gradient-gradient" x1="0" x2="1" y1="0.5" y2="0.5" gradientUnits="objectBoundingBox"><stop offset="0" stop-color="#2766f0"></stop><stop offset="1" stop-color="#f7399d"></stop></linearGradient></defs><g><g transform="matrix(1.3,0,0,1.1,-48.2,97.6)"><path d="M 10.2 -3.9 L -3.8 -3.9 L 4.3 -46.1 L 18.4 -46.1 L 10.2 -3.9 Z M 65.9 -2.6 L 65.9 -2.6 L 65.9 -2.6 Q 58.2 -2.6 58.2 -8.6 L 58.2 -8.6 L 58.2 -8.6 Q 58.2 -11.2 59.3 -16.3 L 59.3 -16.3 L 59.3 -16.3 Q 60.4 -21.4 60.8 -23.5 L 60.8 -23.5 L 60.8 -23.5 Q 61.7 -28.1 61.7 -29.6 L 61.7 -29.6 L 61.7 -29.6 Q 61.7 -32.9 59.2 -32.9 L 59.2 -32.9 L 59.2 -32.9 Q 57.6 -32.9 56.1 -30.7 L 56.1 -30.7 L 56.1 -30.7 Q 54.6 -28.5 53.9 -24 L 53.9 -24 L 49.9 -3.9 L 37.4 -2.6 L 40.9 -20 L 40.9 -20 Q 41.4 -22.9 42 -26.1 L 42 -26.1 L 42 -26.1 Q 42.5 -29.4 42.5 -29.9 L 42.5 -29.9 L 42.5 -29.9 Q 42.5 -32.9 40.3 -32.9 L 40.3 -32.9 L 40.3 -32.9 Q 38.8 -32.9 37.2 -30.7 L 37.2 -30.7 L 37.2 -30.7 Q 35.6 -28.5 34.7 -24 L 34.7 -24 L 30.8 -3.9 L 18.2 -2.6 L 24.9 -36.5 L 35.4 -37.8 L 34.3 -31.3 L 34.3 -31.3 Q 35.9 -34.8 39 -36.3 L 39 -36.3 L 39 -36.3 Q 42.1 -37.8 46.9 -37.8 L 46.9 -37.8 L 46.9 -37.8 Q 49.6 -37.8 51.4 -36.5 L 51.4 -36.5 L 51.4 -36.5 Q 53.2 -35.1 53.8 -32.9 L 53.8 -32.9 L 53.8 -32.9 Q 54.9 -35.2 57.7 -36.5 L 57.7 -36.5 L 57.7 -36.5 Q 60.5 -37.8 63.9 -37.8 L 63.9 -37.8 L 63.9 -37.8 Q 67.3 -37.8 69 -37.1 L 69 -37.1 L 69 -37.1 Q 70.7 -36.3 71.7 -35.1 L 71.7 -35.1 L 71.7 -35.1 Q 73.4 -32.9 73.4 -28.8 L 73.4 -28.8 L 73.4 -28.8 Q 73.4 -24.7 71.7 -16.4 L 71.7 -16.4 L 71.7 -16.4 Q 70.8 -12.3 70.8 -10.8 L 70.8 -10.8 L 70.8 -10.8 Q 70.8 -9.3 71.7 -8.4 L 71.7 -8.4 L 71.7 -8.4 Q 72.6 -7.5 73.8 -7.3 L 73.8 -7.3 L 73.8 -7.3 Q 73.2 -5.2 71 -3.9 L 71 -3.9 L 71 -3.9 Q 68.8 -2.6 65.9 -2.6 Z M 81.5 -5.8 L 81.5 -5.8 L 81.5 -5.8 Q 80 -7.5 79.4 -10.1 L 79.4 -10.1 L 79.4 -10.1 Q 78.7 -12.7 78.7 -17 L 78.7 -17 L 78.7 -17 Q 78.7 -21.3 80.2 -25.2 L 80.2 -25.2 L 80.2 -25.2 Q 81.6 -29.1 84.3 -31.9 L 84.3 -31.9 L 84.3 -31.9 Q 89.8 -37.8 98.9 -37.8 L 98.9 -37.8 L 98.9 -37.8 Q 102.2 -37.8 104.6 -36.7 L 104.6 -36.7 L 115.5 -37.8 L 110.8 -12.8 L 110.8 -12.8 Q 110.6 -12.1 110.6 -10.7 L 110.6 -10.7 L 110.6 -10.7 Q 110.6 -9.3 111.4 -8.4 L 111.4 -8.4 L 111.4 -8.4 Q 112.3 -7.5 113.6 -7.3 L 113.6 -7.3 L 113.6 -7.3 Q 112.9 -5.2 110.6 -3.9 L 110.6 -3.9 L 110.6 -3.9 Q 108.3 -2.6 105.6 -2.6 L 105.6 -2.6 L 105.6 -2.6 Q 103 -2.6 101.3 -3.6 L 101.3 -3.6 L 101.3 -3.6 Q 99.5 -4.6 99 -6.2 L 99 -6.2 L 99 -6.2 Q 98 -4.6 95.8 -3.6 L 95.8 -3.6 L 95.8 -3.6 Q 93.6 -2.6 90.7 -2.6 L 90.7 -2.6 L 90.7 -2.6 Q 87.8 -2.6 85.4 -3.4 L 85.4 -3.4 L 85.4 -3.4 Q 83 -4.1 81.5 -5.8 Z M 95 -31.8 L 95 -31.8 L 95 -31.8 Q 94.3 -30.6 93.7 -28.7 L 93.7 -28.7 L 93.7 -28.7 Q 93 -26.7 92 -21.5 L 92 -21.5 L 92 -21.5 Q 90.9 -16.3 90.9 -12.6 L 90.9 -12.6 L 90.9 -12.6 Q 90.9 -8.9 91.5 -7.8 L 91.5 -7.8 L 91.5 -7.8 Q 92.1 -6.7 93.1 -6.7 L 93.1 -6.7 L 93.1 -6.7 Q 95.1 -6.7 96.6 -8.6 L 96.6 -8.6 L 96.6 -8.6 Q 98.2 -10.6 98.7 -14.1 L 98.7 -14.1 L 102.1 -32.8 L 102.1 -32.8 Q 100.8 -34 99.2 -34 L 99.2 -34 L 99.2 -34 Q 97.6 -34 96.7 -33.4 L 96.7 -33.4 L 96.7 -33.4 Q 95.8 -32.9 95 -31.8 Z M 123.2 -30.6 L 123.2 -30.6 L 123.2 -30.6 Q 125.4 -33.7 128.7 -35.7 L 128.7 -35.7 L 128.7 -35.7 Q 132 -37.8 136 -37.8 L 136 -37.8 L 136 -37.8 Q 140.1 -37.8 142 -36.5 L 142 -36.5 L 154.5 -37.8 L 150.2 -13.2 L 150.2 -13.2 Q 147.9 -0.7 143.2 4.3 L 143.2 4.3 L 143.2 4.3 Q 138.7 8.9 129.8 8.9 L 129.8 8.9 L 129.8 8.9 Q 123.1 8.9 119.3 6.8 L 119.3 6.8 L 119.3 6.8 Q 115.4 4.7 115.4 1.2 L 115.4 1.2 L 115.4 1.2 Q 115.4 -1.4 117.4 -2.9 L 117.4 -2.9 L 117.4 -2.9 Q 119.4 -4.5 122.5 -4.5 L 122.5 -4.5 L 122.5 -4.5 Q 125.2 -4.5 127.2 -3.2 L 127.2 -3.2 L 127.2 -3.2 Q 128.4 -2.6 129 -1.7 L 129 -1.7 L 129 -1.7 Q 127.5 -0.4 127.5 1.7 L 127.5 1.7 L 127.5 1.7 Q 127.5 4.4 130.1 4.4 L 130.1 4.4 L 130.1 4.4 Q 134.4 4.4 136.8 -5.7 L 136.8 -5.7 L 136.8 -5.7 Q 137.5 -8.4 138.1 -11.2 L 138.1 -11.2 L 138.1 -11.2 Q 135.2 -7.7 128.7 -7.7 L 128.7 -7.7 L 128.7 -7.7 Q 124.1 -7.7 121.5 -9.8 L 121.5 -9.8 L 121.5 -9.8 Q 118.9 -12 118.9 -17.1 L 118.9 -17.1 L 118.9 -17.1 Q 118.9 -20.3 120 -23.9 L 120 -23.9 L 120 -23.9 Q 121.1 -27.6 123.2 -30.6 Z M 131.6 -16.9 L 131.6 -16.9 L 131.6 -16.9 Q 131.6 -12.6 133.8 -12.6 L 133.8 -12.6 L 133.8 -12.6 Q 135.3 -12.6 136.8 -14.2 L 136.8 -14.2 L 136.8 -14.2 Q 138 -15.6 138.4 -17.6 L 138.4 -17.6 L 141.7 -34 L 141.7 -34 Q 141.4 -34.1 141 -34.2 L 141 -34.2 L 141 -34.2 Q 140.4 -34.5 139.6 -34.5 L 139.6 -34.5 L 139.6 -34.5 Q 135.7 -34.5 133.4 -28.1 L 133.4 -28.1 L 133.4 -28.1 Q 131.6 -23.1 131.6 -16.9 Z M 183 -14.7 L 183 -14.7 L 183 -14.7 Q 184.6 -13.6 184.6 -11.2 L 184.6 -11.2 L 184.6 -11.2 Q 184.6 -8.8 183.3 -7.3 L 183.3 -7.3 L 183.3 -7.3 Q 182.1 -5.7 180.1 -4.7 L 180.1 -4.7 L 180.1 -4.7 Q 176 -2.6 171.6 -2.6 L 171.6 -2.6 L 171.6 -2.6 Q 167.2 -2.6 164.6 -3.6 L 164.6 -3.6 L 164.6 -3.6 Q 162 -4.5 160.3 -6.3 L 160.3 -6.3 L 160.3 -6.3 Q 156.9 -9.7 156.9 -15.9 L 156.9 -15.9 L 156.9 -15.9 Q 156.9 -25.6 162.2 -31.5 L 162.2 -31.5 L 162.2 -31.5 Q 167.8 -37.8 177.6 -37.8 L 177.6 -37.8 L 177.6 -37.8 Q 183.7 -37.8 186.7 -35.2 L 186.7 -35.2 L 186.7 -35.2 Q 188.9 -33.3 188.9 -30.2 L 188.9 -30.2 L 188.9 -30.2 Q 188.9 -18.9 169.4 -18.9 L 169.4 -18.9 L 169.4 -18.9 Q 169.2 -17.3 169.2 -15.8 L 169.2 -15.8 L 169.2 -15.8 Q 169.2 -12.9 170.5 -11.8 L 170.5 -11.8 L 170.5 -11.8 Q 171.8 -10.7 174.2 -10.7 L 174.2 -10.7 L 174.2 -10.7 Q 176.7 -10.7 179.3 -11.8 L 179.3 -11.8 L 179.3 -11.8 Q 181.9 -12.9 183 -14.7 Z M 169.9 -21.7 L 169.9 -21.7 L 169.9 -21.7 Q 174.4 -21.7 177.1 -24.5 L 177.1 -24.5 L 177.1 -24.5 Q 179.7 -27.2 179.7 -31.5 L 179.7 -31.5 L 179.7 -31.5 Q 179.7 -32.9 179.1 -33.7 L 179.1 -33.7 L 179.1 -33.7 Q 178.6 -34.5 177.5 -34.5 L 177.5 -34.5 L 177.5 -34.5 Q 176.4 -34.5 175.5 -34.1 L 175.5 -34.1 L 175.5 -34.1 Q 174.6 -33.7 173.6 -32.3 L 173.6 -32.3 L 173.6 -32.3 Q 171.2 -29.1 169.9 -21.7 Z M 210.2 -26.3 L 210.2 -26.3 L 210.2 -26.3 Q 211.1 -28.7 211.1 -30.8 L 211.1 -30.8 L 211.1 -30.8 Q 211.1 -34.5 208 -34.5 L 208 -34.5 L 208 -34.5 Q 206.4 -34.5 205.1 -33.1 L 205.1 -33.1 L 205.1 -33.1 Q 203.8 -31.7 203.8 -29.9 L 203.8 -29.9 L 203.8 -29.9 Q 203.8 -28.6 204.8 -27.6 L 204.8 -27.6 L 204.8 -27.6 Q 206.3 -26.1 210.1 -23.8 L 210.1 -23.8 L 210.1 -23.8 Q 213.9 -21.5 215.3 -19.7 L 215.3 -19.7 L 215.3 -19.7 Q 216.7 -17.8 216.7 -15.2 L 216.7 -15.2 L 216.7 -15.2 Q 216.7 -12.6 215.5 -10.2 L 215.5 -10.2 L 215.5 -10.2 Q 214.2 -7.8 212 -6.2 L 212 -6.2 L 212 -6.2 Q 207.2 -2.6 199.5 -2.6 L 199.5 -2.6 L 199.5 -2.6 Q 195.4 -2.6 192.2 -4.8 L 192.2 -4.8 L 192.2 -4.8 Q 189 -6.9 189 -9.4 L 189 -9.4 L 189 -9.4 Q 189 -11.9 190.8 -13.3 L 190.8 -13.3 L 190.8 -13.3 Q 192.6 -14.8 195.3 -14.8 L 195.3 -14.8 L 195.3 -14.8 Q 198 -14.8 199.7 -13.8 L 199.7 -13.8 L 199.7 -13.8 Q 198.8 -11.7 198.8 -10.3 L 198.8 -10.3 L 198.8 -10.3 Q 198.8 -6.1 202.4 -6.1 L 202.4 -6.1 L 202.4 -6.1 Q 203.9 -6.1 205 -7 L 205 -7 L 205 -7 Q 206 -8 206 -9.6 L 206 -9.6 L 206 -9.6 Q 206 -12.9 200.5 -16.4 L 200.5 -16.4 L 200.5 -16.4 Q 196 -19.3 195 -20.5 L 195 -20.5 L 195 -20.5 Q 193.3 -22.5 193.3 -25.1 L 193.3 -25.1 L 193.3 -25.1 Q 193.3 -27.6 194.5 -30.1 L 194.5 -30.1 L 194.5 -30.1 Q 195.7 -32.5 197.9 -34.2 L 197.9 -34.2 L 197.9 -34.2 Q 202.6 -37.8 210.7 -37.8 L 210.7 -37.8 L 210.7 -37.8 Q 214.9 -37.8 217.4 -36.1 L 217.4 -36.1 L 217.4 -36.1 Q 219.8 -34.5 219.8 -31.7 L 219.8 -31.7 L 219.8 -31.7 Q 219.8 -28.8 218.1 -27.2 L 218.1 -27.2 L 218.1 -27.2 Q 216.4 -25.6 213.4 -25.6 L 213.4 -25.6 L 213.4 -25.6 Q 211.2 -25.6 210.2 -26.3 Z M 261.3 -24.5 L 274.2 -25.6 L 274.2 -25.6 Q 269.6 -15.5 269.6 -3.8 L 269.6 -3.8 L 269.6 -3.8 Q 267.9 -2.6 265.4 -2.6 L 265.4 -2.6 L 265.4 -2.6 Q 262.8 -2.6 261.2 -3.8 L 261.2 -3.8 L 261.2 -3.8 Q 259.6 -5 259.3 -6.2 L 259.3 -6.2 L 259.3 -6.2 Q 257.7 -4.5 255.1 -3.6 L 255.1 -3.6 L 255.1 -3.6 Q 252.5 -2.6 249.8 -2.6 L 249.8 -2.6 L 249.8 -2.6 Q 247 -2.6 244.6 -3.5 L 244.6 -3.5 L 244.6 -3.5 Q 242.2 -4.4 240.4 -6.4 L 240.4 -6.4 L 240.4 -6.4 Q 236.3 -10.7 236.3 -19 L 236.3 -19 L 236.3 -19 Q 236.3 -31.8 243.1 -39.5 L 243.1 -39.5 L 243.1 -39.5 Q 250.2 -47.4 262.6 -47.4 L 262.6 -47.4 L 262.6 -47.4 Q 271.3 -47.4 274.3 -42.9 L 274.3 -42.9 L 274.3 -42.9 Q 275.3 -41.5 275.3 -39.8 L 275.3 -39.8 L 275.3 -39.8 Q 275.3 -38.1 274.6 -36.7 L 274.6 -36.7 L 274.6 -36.7 Q 273.8 -35.2 272.7 -34.1 L 272.7 -34.1 L 272.7 -34.1 Q 269.9 -31.5 266.5 -31.5 L 266.5 -31.5 L 266.5 -31.5 Q 265.2 -31.5 263.9 -32 L 263.9 -32 L 263.9 -32 Q 264.2 -33.9 264.2 -36.1 L 264.2 -36.1 L 264.2 -36.1 Q 264.2 -38.4 264 -39.4 L 264 -39.4 L 264 -39.4 Q 263.8 -40.4 263.5 -41.3 L 263.5 -41.3 L 263.5 -41.3 Q 262.6 -43 260.8 -43 L 260.8 -43 L 260.8 -43 Q 259 -43 257 -41 L 257 -41 L 257 -41 Q 255 -39.1 253.4 -35.9 L 253.4 -35.9 L 253.4 -35.9 Q 249.8 -28.7 249.8 -20.1 L 249.8 -20.1 L 249.8 -20.1 Q 249.8 -16.1 251.4 -13.3 L 251.4 -13.3 L 251.4 -13.3 Q 253 -10.2 256 -10.2 L 256 -10.2 L 256 -10.2 Q 257 -10.2 257.9 -10.7 L 257.9 -10.7 L 257.9 -10.7 Q 258.9 -11.2 259.2 -11.6 L 259.2 -11.6 L 261.3 -24.5 Z M 280.1 -5.8 L 280.1 -5.8 L 280.1 -5.8 Q 278.6 -7.5 278 -10.1 L 278 -10.1 L 278 -10.1 Q 277.3 -12.7 277.3 -17 L 277.3 -17 L 277.3 -17 Q 277.3 -21.3 278.8 -25.2 L 278.8 -25.2 L 278.8 -25.2 Q 280.2 -29.1 282.9 -31.9 L 282.9 -31.9 L 282.9 -31.9 Q 288.4 -37.8 297.5 -37.8 L 297.5 -37.8 L 297.5 -37.8 Q 300.8 -37.8 303.1 -36.7 L 303.1 -36.7 L 314.1 -37.8 L 309.4 -12.8 L 309.4 -12.8 Q 309.2 -12.1 309.2 -10.7 L 309.2 -10.7 L 309.2 -10.7 Q 309.2 -9.3 310 -8.4 L 310 -8.4 L 310 -8.4 Q 310.9 -7.5 312.2 -7.3 L 312.2 -7.3 L 312.2 -7.3 Q 311.5 -5.2 309.2 -3.9 L 309.2 -3.9 L 309.2 -3.9 Q 306.9 -2.6 304.2 -2.6 L 304.2 -2.6 L 304.2 -2.6 Q 301.6 -2.6 299.8 -3.6 L 299.8 -3.6 L 299.8 -3.6 Q 298.1 -4.6 297.6 -6.2 L 297.6 -6.2 L 297.6 -6.2 Q 296.6 -4.6 294.4 -3.6 L 294.4 -3.6 L 294.4 -3.6 Q 292.2 -2.6 289.3 -2.6 L 289.3 -2.6 L 289.3 -2.6 Q 286.4 -2.6 284 -3.4 L 284 -3.4 L 284 -3.4 Q 281.6 -4.1 280.1 -5.8 Z M 293.6 -31.8 L 293.6 -31.8 L 293.6 -31.8 Q 292.9 -30.6 292.3 -28.7 L 292.3 -28.7 L 292.3 -28.7 Q 291.6 -26.7 290.6 -21.5 L 290.6 -21.5 L 290.6 -21.5 Q 289.5 -16.3 289.5 -12.6 L 289.5 -12.6 L 289.5 -12.6 Q 289.5 -8.9 290.1 -7.8 L 290.1 -7.8 L 290.1 -7.8 Q 290.7 -6.7 291.7 -6.7 L 291.7 -6.7 L 291.7 -6.7 Q 293.7 -6.7 295.2 -8.6 L 295.2 -8.6 L 295.2 -8.6 Q 296.7 -10.6 297.3 -14.1 L 297.3 -14.1 L 300.7 -32.8 L 300.7 -32.8 Q 299.4 -34 297.8 -34 L 297.8 -34 L 297.8 -34 Q 296.2 -34 295.3 -33.4 L 295.3 -33.4 L 295.3 -33.4 Q 294.4 -32.9 293.6 -31.8 Z M 332.8 -7.4 L 332.8 -7.4 L 332.8 -7.4 Q 330.9 -2.6 324.5 -2.6 L 324.5 -2.6 L 324.5 -2.6 Q 321.3 -2.6 319.3 -4.8 L 319.3 -4.8 L 319.3 -4.8 Q 317.6 -6.7 317.6 -8.8 L 317.6 -8.8 L 317.6 -8.8 Q 317.6 -13.6 319.8 -24.1 L 319.8 -24.1 L 324.5 -48.7 L 337.5 -50 L 331.3 -17.6 L 331.3 -17.6 Q 330.2 -12.8 330.2 -11.2 L 330.2 -11.2 L 330.2 -11.2 Q 330.2 -7.5 332.8 -7.4 Z M 353.6 -7.4 L 353.6 -7.4 L 353.6 -7.4 Q 351.6 -2.6 345.3 -2.6 L 345.3 -2.6 L 345.3 -2.6 Q 342.1 -2.6 340 -4.8 L 340 -4.8 L 340 -4.8 Q 338.3 -6.7 338.3 -8.8 L 338.3 -8.8 L 338.3 -8.8 Q 338.3 -13.6 340.6 -24.1 L 340.6 -24.1 L 345.3 -48.7 L 358.2 -50 L 352 -17.6 L 352 -17.6 Q 351 -12.8 351 -11.2 L 351 -11.2 L 351 -11.2 Q 351 -7.5 353.6 -7.4 Z M 384.9 -14.7 L 384.9 -14.7 L 384.9 -14.7 Q 386.5 -13.6 386.5 -11.2 L 386.5 -11.2 L 386.5 -11.2 Q 386.5 -8.8 385.3 -7.3 L 385.3 -7.3 L 385.3 -7.3 Q 384.1 -5.7 382.1 -4.7 L 382.1 -4.7 L 382.1 -4.7 Q 378 -2.6 373.6 -2.6 L 373.6 -2.6 L 373.6 -2.6 Q 369.2 -2.6 366.6 -3.6 L 366.6 -3.6 L 366.6 -3.6 Q 364 -4.5 362.3 -6.3 L 362.3 -6.3 L 362.3 -6.3 Q 358.9 -9.7 358.9 -15.9 L 358.9 -15.9 L 358.9 -15.9 Q 358.9 -25.6 364.1 -31.5 L 364.1 -31.5 L 364.1 -31.5 Q 369.8 -37.8 379.6 -37.8 L 379.6 -37.8 L 379.6 -37.8 Q 385.6 -37.8 388.6 -35.2 L 388.6 -35.2 L 388.6 -35.2 Q 390.9 -33.3 390.9 -30.2 L 390.9 -30.2 L 390.9 -30.2 Q 390.9 -18.9 371.4 -18.9 L 371.4 -18.9 L 371.4 -18.9 Q 371.2 -17.3 371.2 -15.8 L 371.2 -15.8 L 371.2 -15.8 Q 371.2 -12.9 372.5 -11.8 L 372.5 -11.8 L 372.5 -11.8 Q 373.8 -10.7 376.2 -10.7 L 376.2 -10.7 L 376.2 -10.7 Q 378.7 -10.7 381.3 -11.8 L 381.3 -11.8 L 381.3 -11.8 Q 383.8 -12.9 384.9 -14.7 Z M 371.9 -21.7 L 371.9 -21.7 L 371.9 -21.7 Q 376.4 -21.7 379 -24.5 L 379 -24.5 L 379 -24.5 Q 381.7 -27.2 381.7 -31.5 L 381.7 -31.5 L 381.7 -31.5 Q 381.7 -32.9 381.1 -33.7 L 381.1 -33.7 L 381.1 -33.7 Q 380.6 -34.5 379.5 -34.5 L 379.5 -34.5 L 379.5 -34.5 Q 378.4 -34.5 377.5 -34.1 L 377.5 -34.1 L 377.5 -34.1 Q 376.6 -33.7 375.6 -32.3 L 375.6 -32.3 L 375.6 -32.3 Q 373.2 -29.1 371.9 -21.7 Z M 413.1 -21.9 L 413.1 -21.9 L 413.1 -21.9 Q 415.4 -26 415.4 -30.1 L 415.4 -30.1 L 415.4 -30.1 Q 415.4 -32.9 413.4 -32.9 L 413.4 -32.9 L 413.4 -32.9 Q 411.9 -32.9 410.3 -30.2 L 410.3 -30.2 L 410.3 -30.2 Q 408.6 -27.6 408.1 -24.2 L 408.1 -24.2 L 404.8 -3.9 L 391.5 -2.6 L 398.1 -36.5 L 408.6 -37.8 L 407.5 -31.3 L 407.5 -31.3 Q 410.6 -37.8 417.6 -37.8 L 417.6 -37.8 L 417.6 -37.8 Q 421.4 -37.8 423.4 -35.9 L 423.4 -35.9 L 423.4 -35.9 Q 425.4 -34 425.4 -30 L 425.4 -30 L 425.4 -30 Q 425.4 -26.1 422.8 -23.6 L 422.8 -23.6 L 422.8 -23.6 Q 420.2 -21.1 415.8 -21.1 L 415.8 -21.1 L 415.8 -21.1 Q 413.9 -21.1 413.1 -21.9 Z M 446.8 -11.1 L 446.8 -11.1 L 446.8 -11.1 Q 443.4 -7.7 437.4 -7.7 L 437.4 -7.7 L 437.4 -7.7 Q 429.7 -7.7 428.1 -13.2 L 428.1 -13.2 L 428.1 -13.2 Q 427.6 -14.9 427.6 -16.7 L 427.6 -16.7 L 427.6 -16.7 Q 427.6 -18.6 428 -20.5 L 428 -20.5 L 431 -36.5 L 444 -37.8 L 440.5 -19.2 L 440.5 -19.2 Q 440.4 -18.3 440.2 -17.4 L 440.2 -17.4 L 440.2 -17.4 Q 440 -16.5 440 -15.6 L 440 -15.6 L 440 -15.6 Q 440 -14.7 440.3 -14.1 L 440.3 -14.1 L 440.3 -14.1 Q 440.6 -13.5 441.1 -13.1 L 441.1 -13.1 L 441.1 -13.1 Q 441.8 -12.6 443.2 -12.6 L 443.2 -12.6 L 443.2 -12.6 Q 444.6 -12.6 445.8 -14.2 L 445.8 -14.2 L 445.8 -14.2 Q 447 -15.9 447.5 -18.8 L 447.5 -18.8 L 451 -36.5 L 463.7 -37.8 L 458.9 -12.6 L 458.9 -12.6 Q 456.5 -0.4 451.6 4.5 L 451.6 4.5 L 451.6 4.5 Q 449.1 7 445.9 8 L 445.9 8 L 445.9 8 Q 442.7 9 438.5 9 L 438.5 9 L 438.5 9 Q 431.8 9 427.9 6.9 L 427.9 6.9 L 427.9 6.9 Q 424.1 4.8 424.1 1.2 L 424.1 1.2 L 424.1 1.2 Q 424.1 -1.4 426.1 -2.9 L 426.1 -2.9 L 426.1 -2.9 Q 428.1 -4.4 431.1 -4.4 L 431.1 -4.4 L 431.1 -4.4 Q 433.8 -4.4 435.9 -3.2 L 435.9 -3.2 L 435.9 -3.2 Q 437.1 -2.5 437.7 -1.6 L 437.7 -1.6 L 437.7 -1.6 Q 436.2 -0.4 436.2 1.8 L 436.2 1.8 L 436.2 1.8 Q 436.2 4.6 438.8 4.6 L 438.8 4.6 L 438.8 4.6 Q 443 4.6 445.4 -5.2 L 445.4 -5.2 L 445.4 -5.2 Q 446.1 -8 446.8 -11.1 Z" fill="url(#editing-gradient-gradient)"></path></g></g><style>text {
  font-size: 64px;
  font-family: Arial Black;
  dominant-baseline: central;
  text-anchor: middle;
}</style></svg>